External Loads File
version=1
nRows=85
nColumns=13
Range=5.000000e-03-10 seconds
endheader
time 	forceRightX 	forceRightY 	forceRightZ 	pointRightX 	pointRightY 	pointRightZ 	forceLeftX 	forceLeftY 	forceLeftZ 	pointLeftX 	pointLeftY 	pointLeftZ 		
2.505000 -47.362009 747.341900 -0.000000 0.465983 0.323131 -0.106834 -77.421067 -153.711257 -0.000000 0.174092 0.272220 -0.355529
2.510000 -53.016826 765.665115 -0.000000 0.466345 0.312280 -0.106874 -63.481626 -136.448823 -0.000000 0.173850 0.282810 -0.355509
2.515000 -55.392975 787.047399 -0.000000 0.466243 0.301295 -0.106644 -49.037428 -120.718281 -0.000000 0.174243 0.293468 -0.355622
2.520000 -54.794217 811.338747 -0.000000 0.465446 0.290460 -0.107057 -35.159567 -106.800409 -0.000000 0.175243 0.304178 -0.355622
2.525000 -51.007555 838.233376 -0.000000 0.464191 0.279627 -0.106489 -22.690235 -94.589799 -0.000000 0.176902 0.314720 -0.355762
2.530000 -43.712488 867.252836 -0.000000 0.462001 0.268896 -0.107367 -12.088260 -83.878060 -0.000000 0.179109 0.325124 -0.355983
2.535000 -33.223518 897.773237 -0.000000 0.459376 0.258381 -0.107368 -3.451988 -74.552902 -0.000000 0.181966 0.335358 -0.356077
2.540000 -19.041874 929.181408 -0.000000 0.456127 0.248065 -0.107454 3.163269 -66.643878 -0.000000 0.185402 0.345514 -0.356237
2.545000 -0.976217 960.841088 -0.000000 0.452269 0.237941 -0.107547 7.710362 -60.282332 -0.000000 0.189481 0.355615 -0.356597
2.550000 19.320202 992.140984 -0.000000 0.447821 0.228305 -0.107711 10.170408 -55.523018 -0.000000 0.194099 0.365492 -0.357467
2.555000 41.911046 1022.559720 -0.000000 0.442757 0.218982 -0.107904 10.401135 -52.268493 -0.000000 0.199148 0.375123 -0.356665
2.560000 67.417146 1051.593791 -0.000000 0.437088 0.209932 -0.108030 8.350319 -50.297884 -0.000000 0.204842 0.384582 -0.356667
2.565000 94.301650 1078.925387 -0.000000 0.430942 0.201279 -0.108187 4.194901 -49.300026 -0.000000 0.211098 0.393675 -0.356642
2.570000 122.162735 1104.256260 -0.000000 0.424281 0.193040 -0.108268 -1.878098 -48.925313 -0.000000 0.217841 0.402341 -0.356458
2.575000 151.523115 1127.144879 -0.000000 0.417041 0.185168 -0.108261 -9.665836 -48.790328 -0.000000 0.225042 0.410689 -0.356262
2.580000 181.271809 1147.263551 -0.000000 0.409436 0.177770 -0.108290 -18.812057 -48.541117 -0.000000 0.232724 0.418596 -0.356082
2.585000 212.088182 1163.938776 -0.000000 0.401313 0.170767 -0.108241 -28.954250 -47.840668 -0.000000 0.240861 0.426082 -0.355951
2.590000 242.713343 1176.666882 -0.000000 0.392925 0.164441 -0.108135 -39.591953 -46.370695 -0.000000 0.249305 0.433481 -0.355768
2.595000 271.562785 1184.939380 -0.000000 0.384166 0.158684 -0.108042 -50.187712 -43.810156 -0.000000 0.258021 0.439659 -0.355634
2.600000 300.427243 1187.326061 -0.000000 0.375089 0.153387 -0.107825 -60.334368 -39.662707 -0.000000 0.267174 0.445242 -0.355505
2.605000 327.682953 1182.952532 -0.000000 0.365855 0.148755 -0.107635 -69.525857 -33.554195 -0.000000 0.276586 0.450297 -0.355041
2.610000 351.340968 1171.025242 -0.000000 0.356515 0.144560 -0.107451 -77.298691 -25.264532 -0.000000 0.285764 0.454899 -0.354873
2.615000 373.179928 1149.663010 -0.000000 0.347010 0.141140 -0.107194 -83.307015 -14.523794 -0.000000 0.295366 0.459106 -0.354767
2.620000 390.799895 1118.401681 -0.000000 0.337458 0.138222 -0.107003 -87.139279 -1.490759 -0.000000 0.305008 0.462402 -0.354705
2.625000 403.109410 1076.849655 -0.000000 0.327854 0.136272 -0.106715 -88.482359 13.663490 -0.000000 0.314472 0.465304 -0.354676
2.630000 409.312636 1025.136383 -0.000000 0.318377 0.134516 -0.106572 -87.115173 30.717143 -0.000000 0.323820 0.467742 -0.354685
2.635000 409.273095 963.875835 -0.000000 0.308955 0.133732 -0.106496 -82.965864 49.416011 -0.000000 0.333032 0.469971 -0.354757
2.640000 403.289058 894.195118 -0.000000 0.299651 0.133820 -0.106458 -76.148256 69.523235 -0.000000 0.342139 0.471363 -0.354736
2.645000 392.171614 817.510980 -0.000000 0.289963 0.134445 -0.106285 -66.916667 90.951166 -0.000000 0.350772 0.472289 -0.355132
2.650000 375.768060 735.993774 -0.000000 0.280769 0.135852 -0.106338 -55.788398 113.732749 -0.000000 0.359289 0.472651 -0.355377
2.655000 355.576154 651.055892 -0.000000 0.271931 0.137950 -0.106182 -43.234039 138.231776 -0.000000 0.367342 0.471480 -0.355623
2.660000 333.819637 563.401414 -0.000000 0.262599 0.140628 -0.106538 -29.476032 164.883937 -0.000000 0.375252 0.470350 -0.356449
2.665000 309.157156 475.440999 -0.000000 0.253855 0.144014 -0.106579 -15.673756 193.776452 -0.000000 0.382508 0.468456 -0.356813
2.670000 282.703013 387.995792 -0.000000 0.245403 0.147955 -0.106562 -2.654637 224.972038 -0.000000 0.389139 0.466316 -0.356966
2.675000 255.737362 301.400823 -0.000000 0.237337 0.152345 -0.106633 9.126623 258.264606 -0.000000 0.395641 0.463065 -0.357533
2.680000 228.149962 216.811351 -0.000000 0.229706 0.157148 -0.106644 18.691659 293.149122 -0.000000 0.401777 0.458694 -0.358052
2.685000 200.065468 135.257793 -0.000000 0.222563 0.162511 -0.106558 25.229094 328.874143 -0.000000 0.407656 0.453522 -0.358647
2.690000 171.573822 57.887341 -0.000000 0.215948 0.168476 -0.106375 27.981565 364.529072 -0.000000 0.413428 0.447939 -0.359263
2.695000 142.833387 -14.140115 -0.000000 0.209748 0.174615 -0.106155 26.420806 399.198186 -0.000000 0.418945 0.441632 -0.359760
2.700000 113.977491 -79.809748 -0.000000 0.204081 0.181335 -0.105717 20.833510 432.078154 -0.000000 0.424385 0.434682 -0.359937
2.705000 85.133941 -137.904879 -0.000000 0.198996 0.188399 -0.105206 11.493146 462.618696 -0.000000 0.429748 0.427104 -0.359986
2.710000 56.625431 -187.279461 -0.000000 0.194335 0.195718 -0.104878 -0.935352 490.484951 -0.000000 0.435001 0.419080 -0.359986
2.715000 29.081020 -226.943223 -0.000000 0.190208 0.203197 -0.104669 -15.761611 515.542422 -0.000000 0.439924 0.410431 -0.359962
2.720000 3.167543 -256.313198 -0.000000 0.186419 0.210852 -0.104786 -31.851364 537.887313 -0.000000 0.444666 0.401296 -0.359902
2.725000 -20.057562 -275.361866 -0.000000 0.183181 0.218729 -0.104736 -48.757606 557.848322 -0.000000 0.448958 0.391713 -0.359928
2.730000 -40.251519 -284.701306 -0.000000 0.180338 0.227181 -0.104410 -64.749400 576.098503 -0.000000 0.452823 0.381579 -0.359983
2.735000 -56.404019 -285.619976 -0.000000 0.177888 0.236081 -0.104273 -80.030190 593.294886 -0.000000 0.456258 0.371403 -0.359998
2.740000 -68.567188 -279.756790 -0.000000 0.175932 0.245420 -0.104365 -93.451192 610.298039 -0.000000 0.459235 0.360756 -0.359931
2.745000 -76.939053 -268.893955 -0.000000 0.173697 0.255206 -0.105361 -104.257545 627.945109 -0.000000 0.461843 0.349836 -0.359909
2.750000 -81.275758 -254.885670 -0.000000 0.172502 0.265316 -0.105553 -113.356670 646.695809 -0.000000 0.464004 0.338704 -0.359842
2.755000 -82.261311 -239.080366 -0.000000 0.171804 0.275700 -0.105837 -120.050543 667.106974 -0.000000 0.465664 0.327339 -0.359811
2.760000 -80.326606 -222.571678 -0.000000 0.171735 0.286260 -0.106137 -124.640748 689.424433 -0.000000 0.466796 0.315912 -0.359787
2.765000 -76.078945 -206.101456 -0.000000 0.172146 0.296880 -0.106525 -127.407030 713.809893 -0.000000 0.467276 0.304507 -0.360020
2.770000 -70.293186 -190.141276 -0.000000 0.173542 0.307539 -0.106358 -128.371156 740.437707 -0.000000 0.467023 0.293132 -0.359960
2.775000 -63.756902 -175.051121 -0.000000 0.175137 0.318220 -0.106689 -127.364743 769.463243 -0.000000 0.466196 0.281747 -0.359723
2.780000 -57.198534 -161.155603 -0.000000 0.177480 0.328968 -0.107147 -124.031379 800.936103 -0.000000 0.464589 0.270403 -0.359650
2.785000 -51.179317 -148.768926 -0.000000 0.180575 0.339651 -0.107382 -118.419424 834.642455 -0.000000 0.462301 0.259169 -0.359606
2.790000 -46.217610 -138.113840 -0.000000 0.184145 0.350236 -0.107624 -110.535101 870.187073 -0.000000 0.459345 0.248092 -0.359541
2.795000 -42.740459 -129.290802 -0.000000 0.188396 0.360654 -0.107954 -100.427918 906.993651 -0.000000 0.455658 0.237362 -0.359462
2.800000 -41.079164 -122.252881 -0.000000 0.193391 0.370818 -0.108275 -87.922947 944.324745 -0.000000 0.451310 0.227033 -0.359329
2.805000 -41.478556 -116.857077 -0.000000 0.198935 0.380644 -0.108618 -72.332552 981.272019 -0.000000 0.446292 0.216885 -0.359137
2.810000 -43.967260 -112.990000 -0.000000 0.205080 0.390166 -0.108931 -53.945414 1016.632853 -0.000000 0.440658 0.207231 -0.358981
2.815000 -48.619121 -110.476543 -0.000000 0.211659 0.399356 -0.109250 -32.505978 1049.123941 -0.000000 0.434526 0.197852 -0.358836
2.820000 -55.470973 -109.024518 -0.000000 0.218913 0.408388 -0.109563 -7.646886 1077.415716 -0.000000 0.427932 0.188955 -0.358682
2.825000 -64.177338 -108.342403 -0.000000 0.226548 0.416642 -0.109889 18.325288 1100.205801 -0.000000 0.420877 0.180539 -0.358591
2.830000 -74.526741 -107.894871 -0.000000 0.234664 0.424389 -0.110154 45.878631 1116.332008 -0.000000 0.413372 0.172740 -0.358506
2.835000 -86.101835 -107.106249 -0.000000 0.243235 0.431578 -0.110533 74.780982 1124.705021 -0.000000 0.405494 0.165376 -0.358482
2.840000 -98.311333 -105.442876 -0.000000 0.252101 0.438409 -0.110910 103.914659 1124.449621 -0.000000 0.397361 0.158529 -0.358469
2.845000 -110.646749 -102.248405 -0.000000 0.261731 0.444681 -0.110576 133.666586 1114.775344 -0.000000 0.388944 0.152298 -0.358475
2.850000 -122.141880 -97.401973 -0.000000 0.270875 0.450370 -0.111533 159.519670 1095.798674 -0.000000 0.380315 0.146555 -0.358430
2.855000 -132.506488 -90.198905 -0.000000 0.280549 0.455439 -0.111896 183.837494 1067.247128 -0.000000 0.371416 0.141478 -0.358422
2.860000 -141.135660 -80.408760 -0.000000 0.290589 0.459904 -0.111807 205.120138 1029.746542 -0.000000 0.362358 0.137161 -0.358507
2.865000 -147.391444 -68.151935 -0.000000 0.300300 0.463596 -0.112474 220.618539 984.834102 -0.000000 0.353219 0.133548 -0.358418
2.870000 -151.072483 -53.035835 -0.000000 0.310418 0.466789 -0.112734 232.444765 933.618608 -0.000000 0.343995 0.130416 -0.358383
2.875000 -151.794254 -35.283383 -0.000000 0.320724 0.469295 -0.112992 239.628755 878.229653 -0.000000 0.334713 0.128005 -0.358326
2.880000 -149.301182 -15.278070 -0.000000 0.330782 0.471264 -0.113173 241.684451 820.986920 -0.000000 0.325296 0.126433 -0.358290
2.885000 -143.523202 6.734507 -0.000000 0.340691 0.472728 -0.113343 239.969075 763.772618 -0.000000 0.315630 0.125651 -0.358565
2.890000 -134.505155 30.393238 -0.000000 0.350651 0.473506 -0.113272 235.755043 708.244142 -0.000000 0.305808 0.125632 -0.358538
2.895000 -122.558476 55.030979 -0.000000 0.359966 0.473802 -0.113293 228.638128 656.083053 -0.000000 0.295866 0.126266 -0.358494
2.900000 -108.079155 80.589702 -0.000000 0.369099 0.473311 -0.113395 220.500791 607.432016 -0.000000 0.285995 0.127744 -0.358181
2.905000 -91.652997 106.994410 -0.000000 0.377651 0.472179 -0.113125 211.537268 562.099407 -0.000000 0.276128 0.129758 -0.358038
2.910000 -73.898242 134.569734 -0.000000 0.385564 0.470439 -0.112673 202.117208 518.998691 -0.000000 0.266479 0.132430 -0.357895
2.915000 -55.296509 163.987185 -0.000000 0.393037 0.468257 -0.112392 192.788403 476.375974 -0.000000 0.257177 0.135848 -0.357764
2.920000 -36.359135 195.991816 -0.000000 0.399782 0.465372 -0.111992 183.536269 432.433216 -0.000000 0.248146 0.139844 -0.357626
2.925000 -17.370315 231.238498 -0.000000 0.406200 0.461800 -0.111304 174.718774 385.256667 -0.000000 0.239454 0.144412 -0.357881
